<?xml version="1.0" encoding="utf-8"?>
<!-- Generator: Adobe Illustrator 16.0.3, SVG Export Plug-In . SVG Version: 6.00 Build 0)  -->
<!DOCTYPE svg PUBLIC "-//W3C//DTD SVG 1.1//EN" "http://www.w3.org/Graphics/SVG/1.1/DTD/svg11.dtd">
<svg version="1.1" id="Layer_1" xmlns="http://www.w3.org/2000/svg" xmlns:xlink="http://www.w3.org/1999/xlink" x="0px" y="0px"
	 width="48px" height="144px" viewBox="0 0 48 144" enable-background="new 0 0 48 144" xml:space="preserve">
<g id="New_Symbol">
	<g>
		<path opacity="0.9" fill="#FFFFFF" d="M36.536,98H12.261C6.814,98,2,102.667,2,108.115v24.275c0,5.446,4.814,9.61,10.261,9.61
			h24.275c5.447,0,9.464-4.164,9.464-9.61v-24.275C46,102.667,41.983,98,36.536,98z"/>
		<path fill="#5AA0FF" d="M36.536,98H12.261C6.814,98,2,102.667,2,108.115v24.275c0,5.446,4.814,9.61,10.261,9.61h24.275
			c5.447,0,9.464-4.164,9.464-9.61v-24.275C46,102.667,41.983,98,36.536,98z"/>
		<g opacity="0.1">
			<path d="M36.518,98C41.965,98,46,102.667,46,108.115v24.275c0,5.446-4.017,9.61-9.464,9.61H12.261C6.814,142,2,137.836,2,132.39
				v-24.275C2,102.667,6.814,98,12.261,98H37 M36.536,96H12.261C5.776,96,0,101.435,0,108.115v24.275C0,138.9,5.666,144,12.261,144
				h24.275C43.133,144,48,138.792,48,132.39v-24.275C48,101.548,42.771,96,36.286,96H36.536z"/>
		</g>
	</g>
	<rect y="96" fill="none" width="48" height="48"/>
	<g>
		<g opacity="0.3">
			<path fill="#FFFFFF" d="M24.123,111c0.786,0,1.439,0.354,1.439,1.211c0,0.498-0.252,0.887-0.678,1.049
				c0.474,0.096,0.594,0.576,0.63,0.995c0.024,0.27,0.036,0.858,0.204,1.014h-0.971c-0.108-0.216-0.108-0.642-0.132-0.875
				c-0.06-0.588-0.24-0.797-0.852-0.797H22.93v1.673H22V111H24.123z M22.93,112.919h0.887c0.438,0,0.828-0.078,0.828-0.606
				c0-0.492-0.39-0.576-0.786-0.576H22.93V112.919z"/>
		</g>
	</g>
	<line opacity="0.5" fill="none" stroke="#FFFFFF" stroke-miterlimit="10" x1="24" y1="120" x2="33" y2="111"/>
	<g>
		<path fill="#FFFFFF" d="M25.999,120c0,1.105-0.896,2-2,2s-1.999-0.895-2-2c0.001-1.103,0.896-2,2.001-2
			C25.104,118,25.999,118.896,25.999,120z"/>
	</g>
	<g>
		<circle fill="#5AA0FF" cx="24" cy="120" r="1"/>
	</g>
	<g>
		<path fill="#FFFFFF" d="M24,109c6.065,0,11,4.935,11,11s-4.935,11-11,11s-11-4.935-11-11S17.935,109,24,109 M24,107
			c-7.18,0-13,5.82-13,13s5.82,13,13,13s13-5.82,13-13S31.18,107,24,107L24,107z"/>
	</g>
	<g>
		<path opacity="0.9" fill="#FFFFFF" d="M36.036,2H11.761C6.314,2,2,6.667,2,12.115V36.39C2,41.836,6.314,46,11.761,46h24.275
			C41.483,46,46,41.836,46,36.39V12.115C46,6.667,41.483,2,36.036,2z"/>
		<g opacity="0.1">
			<path d="M36.018,2C41.465,2,46,6.667,46,12.115V36.39c0,5.446-4.517,9.61-9.964,9.61H11.761C6.314,46,2,41.836,2,36.39V12.115
				C2,6.667,6.314,2,11.761,2H36 M36.036,0H11.761C5.276,0,0,5.435,0,12.115V36.39C0,42.9,5.166,48,11.761,48h24.275
				C42.633,48,48,42.792,48,36.39V12.115C48,5.548,42.521,0,36.036,0L36.036,0z"/>
		</g>
	</g>
	<rect fill="none" width="48" height="48"/>
	<g>
		<g opacity="0.3">
			<path d="M24.123,15c0.786,0,1.439,0.354,1.439,1.211c0,0.498-0.252,0.887-0.678,1.049c0.474,0.096,0.594,0.576,0.63,0.995
				c0.024,0.27,0.036,0.858,0.204,1.014h-0.971c-0.108-0.216-0.108-0.642-0.132-0.875c-0.06-0.588-0.24-0.797-0.852-0.797H22.93
				v1.673H22V15H24.123z M22.93,16.919h0.887c0.438,0,0.828-0.078,0.828-0.606c0-0.492-0.39-0.576-0.786-0.576H22.93V16.919z"/>
		</g>
	</g>
	<line opacity="0.3" fill="none" stroke="#000000" stroke-miterlimit="10" x1="24.001" y1="24" x2="33.001" y2="15"/>
	<g>
		<path fill="#5AA0FF" d="M26,24c0,1.105-0.896,2-2,2s-1.999-0.895-2-2c0.001-1.103,0.896-2,2.001-2C25.104,22,26,22.896,26,24z"/>
	</g>
	<g>
		<circle fill="#FFFFFF" cx="24" cy="24" r="1"/>
	</g>
	<g>
		<path fill="#5AA0FF" d="M24.001,13c6.065,0,11,4.935,11,11s-4.935,11-11,11s-11-4.935-11-11S17.936,13,24.001,13 M24.001,11
			c-7.18,0-13,5.82-13,13s5.82,13,13,13s13-5.82,13-13S31.181,11,24.001,11L24.001,11z"/>
	</g>
	<g>
		<path opacity="0.9" fill="#FFFFFF" d="M36.536,50H12.261C6.814,50,2,54.667,2,60.115V84.39C2,89.836,6.814,94,12.261,94h24.275
			C41.983,94,46,89.836,46,84.39V60.115C46,54.667,41.983,50,36.536,50z"/>
		<path opacity="0.15" fill="#5AA0FF" d="M36.536,50H12.261C6.814,50,2,54.667,2,60.115V84.39C2,89.836,6.814,94,12.261,94h24.275
			C41.983,94,46,89.836,46,84.39V60.115C46,54.667,41.983,50,36.536,50z"/>
		<g opacity="0.1">
			<path d="M36.518,50C41.965,50,46,54.667,46,60.115V84.39c0,5.446-4.017,9.61-9.464,9.61H12.261C6.814,94,2,89.836,2,84.39V60.115
				C2,54.667,6.814,50,12.261,50H37 M36.536,48H12.261C5.776,48,0,53.435,0,60.115V84.39C0,90.9,5.666,96,12.261,96h24.275
				C43.133,96,48,90.792,48,84.39V60.115C48,53.548,42.771,48,36.286,48H36.536z"/>
		</g>
	</g>
	<rect y="48" fill="none" width="48" height="48"/>
	<g>
		<g opacity="0.3">
			<path d="M24.122,63c0.786,0,1.439,0.354,1.439,1.211c0,0.498-0.252,0.887-0.678,1.049c0.474,0.096,0.594,0.576,0.63,0.995
				c0.024,0.27,0.036,0.858,0.204,1.014h-0.971c-0.108-0.216-0.108-0.642-0.132-0.875c-0.06-0.588-0.24-0.797-0.852-0.797h-0.833
				v1.673h-0.93V63H24.122z M22.929,64.919h0.887c0.438,0,0.828-0.078,0.828-0.606c0-0.492-0.39-0.576-0.786-0.576h-0.929V64.919z"
				/>
		</g>
	</g>
	<line opacity="0.3" fill="none" stroke="#000000" stroke-miterlimit="10" x1="24" y1="72" x2="33" y2="63"/>
	<g>
		<path fill="#5AA0FF" d="M25.999,72c0,1.105-0.896,2-2,2s-1.999-0.895-2-2C22,70.897,22.895,70,24,70
			C25.104,70,25.999,70.896,25.999,72z"/>
	</g>
	<g>
		<circle fill="#FFFFFF" cx="24" cy="72" r="1"/>
	</g>
	<g>
		<path fill="#5AA0FF" d="M24,61c6.065,0,11,4.935,11,11s-4.935,11-11,11s-11-4.935-11-11S17.935,61,24,61 M24,59
			c-7.18,0-13,5.82-13,13s5.82,13,13,13s13-5.82,13-13S31.18,59,24,59L24,59z"/>
	</g>
</g>
</svg>
