<?xml version="1.0" encoding="utf-8"?>
<!-- Generator: Adobe Illustrator 16.0.3, SVG Export Plug-In . SVG Version: 6.00 Build 0)  -->
<!DOCTYPE svg PUBLIC "-//W3C//DTD SVG 1.1//EN" "http://www.w3.org/Graphics/SVG/1.1/DTD/svg11.dtd">
<svg version="1.1" id="Layer_1" xmlns="http://www.w3.org/2000/svg" xmlns:xlink="http://www.w3.org/1999/xlink" x="0px" y="0px"
	 width="48px" height="144px" viewBox="0 0 48 144" enable-background="new 0 0 48 144" xml:space="preserve">
<g id="New_Symbol">
	<g>
		<path opacity="0.9" fill="#FFFFFF" d="M36.036,2H11.761C6.314,2,2,6.667,2,12.115V36.39C2,41.836,6.314,46,11.761,46h24.275
			C41.483,46,46,41.836,46,36.39V12.115C46,6.667,41.483,2,36.036,2z"/>
		<g opacity="0.1">
			<path d="M36.018,2C41.465,2,46,6.667,46,12.115V36.39c0,5.446-4.517,9.61-9.964,9.61H11.761C6.314,46,2,41.836,2,36.39V12.115
				C2,6.667,6.314,2,11.761,2H36 M36.036,0H11.761C5.276,0,0,5.435,0,12.115V36.39C0,42.9,5.166,48,11.761,48h24.275
				C42.633,48,48,42.792,48,36.39V12.115C48,5.548,42.521,0,36.036,0L36.036,0z"/>
		</g>
	</g>
	<rect fill="none" width="48" height="48"/>
	<g>
		<path fill="#5AA0FF" d="M28,24c0,2.211-1.791,4-4,4s-3.998-1.789-4-4c0.002-2.207,1.791-4,4.002-4C26.209,20,28,21.792,28,24z"/>
	</g>
	<g>
		<circle fill="#FFFFFF" cx="24.001" cy="24" r="2"/>
	</g>
	<g>
		<path opacity="0.9" fill="#FFFFFF" d="M36.036,98H11.761C6.314,98,2,102.667,2,108.115v24.275c0,5.446,4.314,9.61,9.761,9.61
			h24.275c5.447,0,9.964-4.164,9.964-9.61v-24.275C46,102.667,41.483,98,36.036,98z"/>
		<path fill="#5AA0FF" d="M36.036,98H11.761C6.314,98,2,102.667,2,108.115v24.275c0,5.446,4.314,9.61,9.761,9.61h24.275
			c5.447,0,9.964-4.164,9.964-9.61v-24.275C46,102.667,41.483,98,36.036,98z"/>
		<g opacity="0.1">
			<path d="M36.018,98C41.465,98,46,102.667,46,108.115v24.275c0,5.446-4.517,9.61-9.964,9.61H11.761C6.314,142,2,137.836,2,132.39
				v-24.275C2,102.667,6.314,98,11.761,98H36 M36.036,96H11.761C5.276,96,0,101.435,0,108.115v24.275C0,138.9,5.166,144,11.761,144
				h24.275C42.633,144,48,138.792,48,132.39v-24.275C48,101.548,42.521,96,36.036,96L36.036,96z"/>
		</g>
	</g>
	<rect y="96" fill="none" width="48" height="48"/>
	<g>
		<path fill="#FFFFFF" d="M28,120c0,2.211-1.791,4-4,4s-3.998-1.789-4-4c0.002-2.207,1.791-4,4.002-4C26.209,116,28,117.792,28,120z
			"/>
	</g>
	<g>
		<circle fill="#5AA0FF" cx="24.001" cy="120" r="2"/>
	</g>
	<g>
		<path opacity="0.9" fill="#FFFFFF" d="M36.036,50H11.761C6.314,50,2,54.667,2,60.115V84.39C2,89.836,6.314,94,11.761,94h24.275
			C41.483,94,46,89.836,46,84.39V60.115C46,54.667,41.483,50,36.036,50z"/>
		<path opacity="0.15" fill="#5AA0FF" d="M36.036,50H11.761C6.314,50,2,54.667,2,60.115V84.39C2,89.836,6.314,94,11.761,94h24.275
			C41.483,94,46,89.836,46,84.39V60.115C46,54.667,41.483,50,36.036,50z"/>
		<g opacity="0.1">
			<path d="M36.018,50C41.465,50,46,54.667,46,60.115V84.39c0,5.446-4.517,9.61-9.964,9.61H11.761C6.314,94,2,89.836,2,84.39V60.115
				C2,54.667,6.314,50,11.761,50H36 M36.036,48H11.761C5.276,48,0,53.435,0,60.115V84.39C0,90.9,5.166,96,11.761,96h24.275
				C42.633,96,48,90.792,48,84.39V60.115C48,53.548,42.521,48,36.036,48L36.036,48z"/>
		</g>
	</g>
	<rect y="48" fill="none" width="48" height="48"/>
	<g>
		<path fill="#5AA0FF" d="M28,72c0,2.211-1.791,4-4,4s-3.998-1.789-4-4c0.002-2.207,1.791-4,4.002-4C26.209,68,28,69.792,28,72z"/>
	</g>
	<g>
		<circle fill="#FFFFFF" cx="24.001" cy="72" r="2"/>
	</g>
</g>
</svg>
