<?xml version="1.0" encoding="utf-8"?><!DOCTYPE svg PUBLIC "-//W3C//DTD SVG 1.1//EN" "http://www.w3.org/Graphics/SVG/1.1/DTD/svg11.dtd"><svg width="322" height="322" viewBox="0 0 322 322" xmlns="http://www.w3.org/2000/svg" xmlns:xlink="http://www.w3.org/1999/xlink"><svg width="64" height="64" viewBox="0 0 64 64" id="Alpha" x="66"><path fill="#5AA0FF" d="M38.016 26.284l1.428-4.006h5.071v1.513l-4.9 8.161c.284 3.565.635 5.856 1.055 6.872.419 1.016 1.062 1.523 1.928 1.523.71 0 1.378-.277 2.003-.831l.916 1.342c-2.017 1.917-3.956 2.876-5.817 2.876-2.315 0-3.75-1.569-4.304-4.709h-.043c-1.122 1.762-2.205 2.987-3.249 3.676-1.044.688-2.22 1.033-3.526 1.033-2.6 0-4.617-.92-6.051-2.759s-2.152-4.265-2.152-7.276c0-3.594.93-6.456 2.791-8.586s4.333-3.196 7.415-3.196c3.438 0 5.88 1.456 7.33 4.368h.105zm-3.239 7.457c-.412-3.991-.913-6.552-1.502-7.681-.589-1.129-1.445-1.694-2.567-1.694-1.179 0-2.134.817-2.866 2.451-.732 1.633-1.098 3.814-1.098 6.541 0 4.56 1.065 6.839 3.196 6.839.98 0 1.843-.5 2.589-1.502.746-1.001 1.495-2.653 2.248-4.954z" opacity=".5"/><path fill="none" d="M0 0h64v64H0z"/></svg><svg width="64" height="64" viewBox="0 0 64 64" id="Beta" y="194"><path fill="#5AA0FF" d="M36.381 30.438c4.531 1.051 6.797 3.658 6.797 7.819 0 2.827-.819 4.972-2.462 6.435-1.639 1.463-4.016 2.194-7.126 2.194-1.861 0-3.565-.362-5.113-1.086v9.95h-6.115V28.435c0-3.949.919-7.017 2.758-9.205 1.84-2.188 4.529-3.281 8.065-3.281 2.841 0 5.093.657 6.755 1.971 1.662 1.313 2.492 3 2.492 5.06 0 3.495-2.017 5.923-6.051 7.287v.171zm-5.412-1.044c3.452-.213 5.178-2.251 5.178-6.115 0-1.577-.306-2.813-.916-3.707-.611-.895-1.463-1.343-2.557-1.343-1.549 0-2.635.849-3.26 2.546-.625 1.697-.938 4.25-.938 7.66v11.314c0 3.281 1.292 4.922 3.877 4.922 1.308 0 2.361-.543 3.164-1.63s1.204-2.553 1.204-4.4c0-2.145-.5-3.839-1.503-5.082-1-1.243-2.417-1.886-4.25-1.928v-2.237z" opacity=".5"/><path fill="none" d="M0 0h64v64H0z"/></svg><svg width="64" height="64" viewBox="0 0 64 64" id="Chi" y="66"><path fill="none" d="M0 0h64v64H0z"/><path fill="#5AA0FF" d="M44.102 45.494c-.568.781-1.321 1.456-2.258 2.024s-1.811.853-2.621.853c-1.222 0-2.22-.256-2.995-.768-.774-.511-1.505-1.491-2.193-2.94-.69-1.448-1.418-3.757-2.185-6.925l-2.791 5.136a53.977 53.977 0 0 0-2.493 5.283h-6.584V46.41c1.705-1.988 3.054-3.722 4.048-5.198l6.072-8.992c-1.548-4.432-2.71-7.234-3.483-8.404-.775-1.174-1.638-1.759-2.589-1.759-.909 0-1.662.277-2.259.831l-1.193-1.619c1.705-1.832 3.629-2.749 5.774-2.749 1.762 0 3.028.722 3.804 2.162.772 1.443 1.644 4.024 2.609 7.746l2.301-4.177a48.48 48.48 0 0 0 2.535-5.369h6.584v1.747c-1.563 1.818-2.884 3.516-3.963 5.093l-5.71 8.395c1.534 4.518 2.717 7.418 3.547 8.705.833 1.284 1.801 1.928 2.909 1.928.682 0 1.321-.32 1.917-.959l1.217 1.703z" opacity=".5"/></svg><svg width="64" height="64" viewBox="0 0 64 64" id="Delta" x="64" y="66"><path fill="#5AA0FF" d="M29.889 28.514c-1.946-1.463-3.196-2.646-3.75-3.548-.555-.902-.831-1.843-.831-2.823 0-1.647.642-2.954 1.929-3.92 1.284-.966 3.156-1.449 5.613-1.449 3.58 0 6.478.661 8.693 1.981v4.539H38.73c-1.179-2.884-3.054-4.326-5.625-4.326-1.975 0-2.961.753-2.961 2.259 0 .525.272 1.065.819 1.619.547.554 1.729 1.47 3.548 2.749 5.725 4.005 8.587 8.096 8.587 12.272 0 2.869-.994 5.22-2.983 7.053-1.988 1.832-4.523 2.749-7.606 2.749-3.11 0-5.622-.931-7.531-2.792-1.911-1.86-2.866-4.183-2.866-6.967 0-2.159.71-4.123 2.131-5.891 1.419-1.769 3.302-2.937 5.646-3.505zm2.3 1.619c-2.443 1.264-3.665 4.275-3.665 9.034 0 1.975.365 3.522 1.099 4.645.729 1.123 1.679 1.684 2.844 1.684 1.278 0 2.301-.572 3.068-1.715.767-1.144 1.15-2.823 1.15-5.039.001-3.013-1.498-5.882-4.496-8.609z" opacity=".5"/><path fill="none" d="M.001 0h64v64h-64z"/></svg><svg width="64" height="64" viewBox="0 0 64 64" id="Epsilon" x="130"><path fill="#5AA0FF" d="M30.852 33.211c-3.664-.81-5.497-2.408-5.497-4.794 0-1.69.866-2.986 2.6-3.889 1.733-.902 3.949-1.353 6.647-1.353 2.557 0 5.121.426 7.692 1.279v4.368h-3.026c-.752-2.273-2.13-3.409-4.133-3.409-.909 0-1.697.284-2.365.852-.668.568-1.002 1.328-1.002 2.28 0 1.008.427 1.829 1.279 2.461.852.632 2.023.948 3.516.948h1.533v2.706H36.69c-1.52 0-2.838.32-3.953.959-1.114.639-1.672 1.583-1.672 2.833 0 1.065.427 1.921 1.279 2.568.852.646 1.839.969 2.961.969 2.23 0 4.411-.831 6.541-2.493l1.662 1.875c-2.784 2.415-6.214 3.622-10.291 3.622-2.798 0-4.94-.511-6.423-1.534-1.486-1.023-2.228-2.458-2.228-4.304 0-1.292.55-2.457 1.65-3.494s2.646-1.79 4.635-2.258v-.192z" opacity=".5"/><path fill="none" d="M.001 0h64v64h-64z"/></svg><svg width="64" height="64" viewBox="0 0 64 64" id="Eta" x="130" y="64"><path fill="#5AA0FF" d="M29.656 26.644c2.188-2.415 4.503-3.622 6.946-3.622 4.091 0 6.136 2.372 6.136 7.117v23.565H36.56V32.972c0-2.613-.189-4.364-.564-5.252-.378-.888-1.155-1.332-2.333-1.332-.966 0-1.826.401-2.578 1.204-.753.803-1.13 1.623-1.13 2.461V44.5h-6.136V29.478c0-1.946-.568-2.919-1.705-2.919-.824 0-1.683.333-2.578 1.001l-.958-1.47c2.514-2.045 4.78-3.068 6.797-3.068 2.527 0 3.954 1.207 4.281 3.622z" opacity=".5"/><path fill="none" d="M0 0h64v64H0z"/></svg><svg width="64" height="64" viewBox="0 0 64 64" id="Gamma" y="130"><path fill="#5AA0FF" d="M33.046 33.611c2.229-5.341 3.863-10.241 4.9-14.702h6.157v1.342c-1.406 2.103-4.857 8.246-10.354 18.431.028.341.07.738.127 1.193.186 1.747.277 3.118.277 4.112v.576c0 .71-.028 1.363-.085 1.96l-3.324 2.045h-2.919v-1.342c0-2.386.504-4.759 1.513-7.116-.61-5.355-1.612-9.713-3.004-13.072-1.393-3.359-2.849-5.039-4.368-5.039-.895 0-1.591.234-2.088.703l-.959-1.299c1.946-1.904 3.999-2.855 6.158-2.855 2.5 0 4.363 1.104 5.594 3.313 1.226 2.208 2.019 6.125 2.375 11.75z" opacity=".5"/><path fill="none" d="M0 0h64v64H0z"/></svg><svg width="64" height="64" viewBox="0 0 64 64" id="Iota" x="64" y="130"><path fill="#5AA0FF" d="M29.358 22.339h6.115V36.7c0 2.898.774 4.347 2.323 4.347.966 0 1.896-.348 2.792-1.044l.916 1.406c-1.904 1.591-4 2.386-6.287 2.386-3.906 0-5.859-2.28-5.859-6.839V22.339z" opacity=".5"/><path fill="none" d="M0 0h64v64H0z"/></svg><svg width="64" height="64" viewBox="0 0 64 64" id="Kappa" x="128" y="130"><path fill="#5AA0FF" d="M22.989 44.478V29.605c0-1.775-.089-2.955-.267-3.537-.178-.583-.869-1.009-2.077-1.278v-1.428l5.795-.17h2.706v9.247c.696-.44 1.79-1.605 3.281-3.494.355-.44.688-.831 1.001-1.172a61.13 61.13 0 0 0 1.684-1.982C36.618 23.931 38.308 23 40.183 23c.881 0 1.726.192 2.536.575v5.114h-2.663c-.156-.966-.562-1.449-1.215-1.449-.44 0-.895.195-1.363.586s-1.442 1.402-2.919 3.036l5.412 9.119c.696 1.165 1.392 1.747 2.088 1.747.725 0 1.279-.22 1.662-.66l.916 1.321c-1.69 1.62-3.565 2.429-5.625 2.429-1.108 0-2.077-.302-2.909-.906-.83-.604-1.637-1.637-2.418-3.1l-3.366-6.115c-.085.029-.476.32-1.172.874v8.906h-6.158z" opacity=".5"/><path fill="none" d="M0 0h64v64H0z"/></svg><svg width="64" height="64" viewBox="0 0 64 64" id="Lambda" x="194"><path fill="#5AA0FF" d="M34.548 32.911c-2.131 4.844-3.892 9.176-5.284 12.997h-7.18v-1.342c2.145-2.798 5.717-9.332 10.717-19.602-1.222-4.02-3.026-6.03-5.412-6.03-.952 0-1.868.397-2.749 1.193l-1.087-1.193c2.145-2.443 4.127-3.665 5.945-3.665 1.449 0 2.592.384 3.43 1.151.838.767 1.53 2.099 2.077 3.995.547 1.896 1.24 5.024 2.078 9.385 1.761 8.878 3.871 13.317 6.328 13.317.497 0 1.037-.206 1.619-.618l.916 1.363c-1.69 1.563-3.395 2.344-5.113 2.344-1.648 0-2.898-1.001-3.75-3.004-.852-2.002-1.697-5.433-2.535-10.291z" opacity=".5"/><path fill="none" d="M0 0h64v64H0z"/></svg><svg width="64" height="64" viewBox="0 0 64 64" id="Mu" x="194" y="64"><path fill="#5AA0FF" d="M23.855 23.334h6.2V34.84c0 2.614.188 4.368.564 5.263s1.148 1.342 2.313 1.342c.938 0 1.79-.405 2.557-1.214s1.15-1.626 1.15-2.45V23.334h6.158V38.25c0 2.002.597 3.004 1.79 3.004.583 0 1.307-.319 2.173-.958l.98 1.406c-2.443 2.06-4.617 3.089-6.52 3.089-2.415 0-3.835-1.208-4.261-3.622-.298.355-.611.739-.938 1.15-1.279 1.648-2.813 2.472-4.603 2.472-1.094 0-2.074-.405-2.94-1.214l-.17.128c.156 2.045.519 4.169 1.087 6.371v1.172l-2.706 1.747h-2.834V23.334z" opacity=".5"/><path fill="none" d="M0 0h64v64H0z"/></svg><svg width="64" height="64" viewBox="0 0 64 64" id="Nu" x="194" y="128"><path fill="#5AA0FF" d="M32.996 46.432h-4.453c-.427-1.548-1.449-4.424-3.068-8.629a70.258 70.258 0 0 1-.98-2.706c-1.406-4.006-2.337-6.42-2.791-7.244-.454-.824-1.122-1.35-2.003-1.577v-1.385h7.756c1.506 3.693 3.281 9.247 5.326 16.662 2.358-3.353 3.537-6.889 3.537-10.611 0-1.818-.404-3.374-1.214-4.667V24.89h5.966c.17.739.256 1.697.256 2.876 0 2.983-.683 5.945-2.046 8.885-1.364 2.941-3.46 6.202-6.286 9.781z" opacity=".5"/><path fill="none" d="M0 0h64v64H0z"/></svg><svg width="64" height="64" viewBox="0 0 64 64" id="Omega" x="192" y="258"><path fill="none" d="M0 0h64v64H0z"/><path fill="#5AA0FF" d="M31.985 42.557H31.9c-1.292 2.443-3.459 3.665-6.498 3.665-2.827 0-5.026-.838-6.594-2.515-1.571-1.676-2.355-3.963-2.355-6.86 0-4.887 2.777-9.02 8.331-12.4l1.406 1.491c-2.131 2.329-3.196 5.881-3.196 10.653 0 4.972 1.037 7.457 3.111 7.457 1.832 0 2.748-1.981 2.748-5.944v-7.095h6.2v6.925c0 4.076.916 6.114 2.749 6.114 2.06 0 3.089-2.485 3.089-7.457 0-4.701-1.044-8.253-3.132-10.653l1.385-1.491c5.555 3.338 8.331 7.514 8.331 12.528 0 2.912-.831 5.182-2.492 6.807-1.662 1.628-3.765 2.44-6.308 2.44-3.237 0-5.468-1.222-6.69-3.665z" opacity=".5"/></svg><svg width="64" height="64" viewBox="0 0 64 64" id="Omicron" x="64" y="194"><path fill="#5AA0FF" d="M32.307 44.818c-2.088 0-3.888-.366-5.401-1.098-1.512-.731-2.695-1.903-3.547-3.516-.853-1.612-1.279-3.661-1.279-6.147 0-1.903.264-3.551.789-4.943s1.257-2.543 2.194-3.452a8.7 8.7 0 0 1 3.356-2.014c1.299-.433 2.709-.65 4.229-.65 3.438 0 6.03.906 7.777 2.717s2.621 4.464 2.621 7.958c0 2.472-.434 4.542-1.3 6.211-.867 1.669-2.103 2.908-3.708 3.718-1.604.812-3.516 1.216-5.731 1.216zm-3.75-11.229c0 3.012.337 5.267 1.013 6.765.674 1.499 1.693 2.248 3.057 2.248.753 0 1.381-.192 1.887-.576.503-.383.908-.938 1.213-1.662.306-.725.523-1.595.65-2.61.128-1.016.192-2.155.192-3.419 0-3.054-.338-5.337-1.013-6.85-.675-1.513-1.672-2.27-2.993-2.27-.966 0-1.74.306-2.322.917-.583.611-1.009 1.527-1.278 2.749-.272 1.222-.406 2.791-.406 4.708z" opacity=".5"/><path fill="none" d="M0 0h64v64H0z"/></svg><svg width="64" height="64" viewBox="0 0 64 64" id="PhiI" x="128" y="194"><path fill="none" d="M0 0h64v64H0z"/><path fill="#5AA0FF" d="M34.862 49.666h-6.03v-8.948c-3.565-.171-6.333-1.127-8.298-2.865-1.969-1.742-2.952-4.146-2.952-7.213 0-4.574 2.749-8.445 8.246-11.612l1.577 1.938c-2.216 2.6-3.324 5.738-3.324 9.418 0 4.701 1.584 7.351 4.751 7.947v-9.439c0-3.054.739-5.469 2.216-7.244s3.65-2.663 6.52-2.663c2.685 0 4.869.916 6.551 2.749 1.685 1.832 2.526 4.354 2.526 7.563 0 3.366-1.051 6.079-3.154 8.14-2.102 2.06-4.979 3.167-8.629 3.323v8.906zm0-11.207c1.861-.512 3.22-1.527 4.081-3.047.858-1.521 1.288-3.75 1.288-6.69 0-2.216-.246-3.999-.734-5.348-.491-1.35-1.205-2.024-2.142-2.024-1.662 0-2.493 1.981-2.493 5.944v11.165z" opacity=".5"/></svg><svg width="64" height="64" viewBox="0 0 64 64" id="Pi" x="192" y="194"><path fill="#5AA0FF" d="M25.479 26.394c-2.131.057-3.813.945-5.05 2.664l-1.875-1.705c1.833-3.31 4.475-4.964 7.927-4.964h18.771v3.963h-4.411v12.827c0 1.278.44 1.917 1.321 1.917.61 0 1.378-.348 2.301-1.044l.874 1.364c-1.903 1.591-3.736 2.386-5.497 2.386-1.563 0-2.731-.461-3.505-1.385-.775-.923-1.161-2.436-1.161-4.539V26.352h-5.071v17.152h-6.052v-1.342c.952-2.727 1.428-7.429 1.428-14.105v-1.663z" opacity=".5"/><path fill="none" d="M0 0h64v64H0z"/></svg><svg width="64" height="64" viewBox="0 0 64 64" id="Psi" x="258"><path fill="none" d="M0 0h64v64H0z"/><path fill="#5AA0FF" d="M18.051 29.653c0-1.832-.116-3.025-.352-3.579-.233-.555-.834-.952-1.8-1.193v-1.385h8.31V35.96c0 2.4.404 4.088 1.214 5.06.811.975 2.018 1.461 3.623 1.461V15.079h6.029V42.48a5.29 5.29 0 0 0 2.685-.725 3.656 3.656 0 0 0 1.705-2.119c.298-.933.447-2.299.447-4.103V23.496H48.2v1.385c-.938.241-1.527.636-1.769 1.182-.241.548-.362 1.744-.362 3.591v5.348c0 3.565-.76 6.115-2.279 7.649-1.521 1.534-4.425 2.302-8.715 2.302v8.863h-6.029v-8.863c-4.262 0-7.159-.761-8.693-2.28s-2.302-3.984-2.302-7.394v-5.626z" opacity=".5"/></svg><svg width="64" height="64" viewBox="0 0 64 64" id="Rho" x="258" y="64"><path fill="none" d="M0 0h64v64H0z"/><path fill="#5AA0FF" d="M29.831 40.844v9.952h-6.115V31.171c0-3.48.891-6.193 2.673-8.14s4.386-2.918 7.81-2.918c3.21 0 5.664.905 7.361 2.716 1.697 1.812 2.547 4.344 2.547 7.597 0 3.693-.862 6.526-2.59 8.5-1.724 1.975-4.15 2.964-7.275 2.964-1.663 0-3.133-.35-4.411-1.046zm0-8.372v2.406c0 3.196 1.235 4.795 3.707 4.795 1.506 0 2.567-.65 3.187-1.95.616-1.3.926-3.76.926-7.382 0-2.543-.345-4.512-1.034-5.903-.688-1.392-1.629-2.088-2.822-2.088-2.643 0-3.964 3.375-3.964 10.122z" opacity=".5"/></svg><svg width="64" height="64" viewBox="0 0 64 64" id="Sigma" x="258" y="128"><path fill="none" d="M0 0h64v64H0z"/><path fill="#5AA0FF" d="M46.347 26.975H39.06v.17c1.307.54 2.375 1.531 3.208 2.972.83 1.443 1.246 2.931 1.246 4.465 0 3.082-.952 5.493-2.855 7.234-1.903 1.738-4.574 2.609-8.011 2.609-3.21 0-5.7-.895-7.468-2.685-1.77-1.79-2.653-4.354-2.653-7.692 0-2.429.668-4.585 2.003-6.466 1.335-1.883 2.926-3.122 4.773-3.719 1.846-.597 4.346-.895 7.5-.895h9.545v4.007zm-11.698 0c-1.676 0-3.033.77-4.07 2.313-1.037 1.54-1.555 3.376-1.555 5.507 0 2.315.369 4.129 1.107 5.444.739 1.313 1.726 1.971 2.962 1.971 2.614 0 3.92-2.387 3.92-7.159 0-2.869-.682-5.562-2.045-8.075h-.319z" opacity=".5"/></svg><svg width="64" height="64" viewBox="0 0 64 64" id="Tau" x="258" y="192"><path fill="none" d="M0 0h64v64H0z"/><path fill="#5AA0FF" d="M34.355 26.345V37.34c0 2.301.774 3.451 2.323 3.451.923 0 1.91-.376 2.961-1.129l1.129 1.619c-1.975 1.676-4.24 2.515-6.797 2.515-1.775 0-3.175-.523-4.197-1.565-1.023-1.046-1.534-2.497-1.534-4.358V26.345h-1.172c-2.287 0-4.077.902-5.37 2.706l-1.875-1.747c1.108-1.818 2.28-3.1 3.516-3.847 1.236-.744 2.742-1.117 4.517-1.117H42.43v4.005h-8.075z" opacity=".5"/></svg><svg width="64" height="64" viewBox="0 0 64 64" id="Theta" y="258"><path fill="#5AA0FF" d="M32.615 47.771c-3.537 0-6.125-1.218-7.767-3.654-1.639-2.436-2.46-6.175-2.46-11.218 0-10.27 3.537-15.405 10.611-15.405 3.508 0 6.108 1.183 7.798 3.548s2.536 6.125 2.536 11.282c0 10.298-3.573 15.447-10.718 15.447zm-3.707-16.662h7.969c-.042-3.864-.359-6.736-.949-8.619-.59-1.882-1.608-2.823-3.057-2.823-1.378 0-2.375.771-2.995 2.312-.616 1.542-.94 4.585-.968 9.13zm0 2.664c.057 4.048.395 7.024 1.011 8.927.619 1.903 1.631 2.855 3.037 2.855 1.35 0 2.33-.806 2.94-2.418.61-1.612.938-4.734.98-9.364h-7.968z" opacity=".5"/><path fill="none" d="M0 0h64v64H0z"/></svg><svg width="64" height="64" viewBox="0 0 64 64" id="Upsilon" x="64" y="258"><path fill="none" d="M0 0h64v64H0z"/><path fill="#5AA0FF" d="M19.342 26.028l-1.001-1.321c2.06-1.86 3.906-2.791 5.54-2.791 1.563 0 2.738.462 3.525 1.385.79.924 1.183 2.472 1.183 4.646v6.498c0 4.333 1.314 6.499 3.942 6.499 2.784 0 4.176-2.5 4.176-7.5 0-1.818-.306-3.653-.917-5.509-.61-1.853-1.363-3.22-2.258-4.101v-1.556h5.923c1.108 2.543 1.662 5.696 1.662 9.46 0 3.552-.895 6.438-2.685 8.662-1.79 2.222-4.169 3.334-7.138 3.334-2.869 0-5.06-.806-6.574-2.419-1.512-1.611-2.269-3.874-2.269-6.785v-6.243c0-1.946-.54-2.919-1.619-2.919-.453 0-.95.22-1.49.66z" opacity=".5"/></svg><svg width="64" height="64" viewBox="0 0 64 64" id="Xi" x="128" y="258"><path fill="#5AA0FF" d="M33.625 20.567c-2.77 0-4.638-.284-5.604-.852-.966-.568-1.471-1.584-1.513-3.047h5.241c.185 1.193 1.101 1.79 2.749 1.79h7.819v2.109c-2.699.199-4.787.756-6.265 1.673-1.477.916-2.216 2.127-2.216 3.633 0 2.685 1.882 4.027 5.646 4.027h1.343v2.578h-1.002c-2.103 0-3.828.558-5.178 1.672-1.35 1.115-2.023 2.603-2.023 4.464 0 .98.203 1.754.606 2.323.406.568.92.994 1.545 1.278s1.918.703 3.878 1.257c2.841.781 4.262 2.394 4.262 4.837 0 1.633-.583 3.118-1.747 4.453-1.165 1.335-2.862 2.642-5.093 3.92l-1.619-1.917c1.506-1.065 2.493-1.967 2.962-2.706s.703-1.52.703-2.344c0-1.165-1.151-1.953-3.452-2.365-3.253-.611-5.469-1.577-6.647-2.897-1.179-1.321-1.769-2.948-1.769-4.879 0-2.088.682-3.835 2.045-5.242 1.364-1.406 3.331-2.344 5.902-2.813v-.191c-2.017-.142-3.629-.668-4.837-1.577-1.207-.909-1.811-2.081-1.811-3.516 0-2.983 2.024-4.815 6.072-5.498v-.17z" opacity=".5"/><path fill="none" d="M0 0h64v64H0z"/></svg><svg width="66" height="66" viewBox="0 0 66 66" id="Zeta"><path fill="#5AA0FF" d="M42.227 19.552c-3.423 3.381-5.973 6.527-7.648 9.439-1.677 2.912-2.515 5.831-2.515 8.757 0 1.86.362 3.199 1.087 4.016s1.975 1.41 3.75 1.779c3.395.752 5.092 2.443 5.092 5.071 0 1.548-.532 2.973-1.598 4.272-1.065 1.3-2.826 2.681-5.284 4.144l-1.662-1.917c2.614-1.775 3.921-3.43 3.921-4.964 0-1.179-1.144-1.996-3.431-2.45-3.323-.682-5.54-1.808-6.647-3.377-1.108-1.57-1.662-3.47-1.662-5.7 0-5.597 3.452-11.151 10.355-16.662v-.192h-9.119v-3.601h15.361v1.385z" opacity=".5"/><path fill="none" d="M1.001 1h64v64h-64z"/></svg></svg>