<?xml version="1.0" encoding="utf-8"?>
<!-- Generator: Adobe Illustrator 16.0.3, SVG Export Plug-In . SVG Version: 6.00 Build 0)  -->
<!DOCTYPE svg PUBLIC "-//W3C//DTD SVG 1.1//EN" "http://www.w3.org/Graphics/SVG/1.1/DTD/svg11.dtd">
<svg version="1.1" id="Layer_1" xmlns="http://www.w3.org/2000/svg" xmlns:xlink="http://www.w3.org/1999/xlink" x="0px" y="0px"
	 width="30px" height="30px" viewBox="0 0 30 30" enable-background="new 0 0 30 30" xml:space="preserve">
<g id="New_Symbol">
	<g>
		<g opacity="0.2">
			<g>
				<g>
					<path d="M21.842,25.863c-0.474,0-0.989-0.156-1.413-0.429l-5.407-3.459l-5.326,3.427c-0.446,0.285-0.955,0.44-1.434,0.44
						c-0.63,0-1.167-0.259-1.514-0.729c-0.44-0.597-0.501-1.421-0.183-2.449l1.757-5.679L5.06,13.661
						c-1.157-1.157-1.138-2.038-0.917-2.571c0.311-0.75,1.11-1.129,2.378-1.129h5.278l1.764-5.311
						c0.245-0.685,0.814-1.113,1.458-1.113s1.214,0.429,1.451,1.092l1.77,5.332h5.278c1.538,0,2.118,0.622,2.334,1.144
						c0.184,0.445,0.314,1.37-0.881,2.564l-3.24,3.317l1.743,5.682c0.337,1.041,0.291,1.879-0.144,2.476
						C22.995,25.608,22.466,25.863,21.842,25.863L21.842,25.863z"/>
				</g>
			</g>
			<g>
				<g>
					<path fill="#DB9446" d="M14.512,4.965l-1.991,5.995h-6c-2,0-1.72,1.027-0.747,2l3.68,3.75l-1.934,6.25
						c-0.615,1.98,0.737,2.173,1.634,1.601l5.866-3.774l5.95,3.807c0.787,0.507,2.232,0.473,1.55-1.633l-1.917-6.25l3.663-3.75
						c0.975-0.973,1.131-2-0.746-2h-6l-1.99-5.995C15.326,4.394,14.716,4.394,14.512,4.965z"/>
				</g>
			</g>
			<g>
				<g>
					<path fill="#797D80" d="M15.021,4.537c0.204,0,0.407,0.143,0.509,0.428l1.99,5.995h6c1.877,0,1.721,1.027,0.746,2l-3.663,3.75
						l1.917,6.25c0.463,1.428-0.053,1.903-0.678,1.903c-0.296,0-0.618-0.107-0.872-0.27l-5.95-3.807l-5.866,3.774
						c-0.278,0.177-0.6,0.281-0.893,0.281c-0.653,0-1.166-0.515-0.741-1.882l1.934-6.25l-3.68-3.75c-0.973-0.973-1.253-2,0.747-2h6
						l1.991-5.995C14.614,4.68,14.817,4.537,15.021,4.537 M15.021,2.537c-1.072,0-2.012,0.689-2.393,1.756L11.078,8.96H6.521
						c-2.131,0-2.972,0.95-3.302,1.747c-0.276,0.667-0.496,2.031,1.141,3.667l2.831,2.885l-1.581,5.11
						c-0.521,1.677-0.106,2.741,0.333,3.337c0.532,0.722,1.377,1.136,2.319,1.136c0.667,0,1.367-0.211,1.968-0.595l4.793-3.084
						l4.87,3.115c0.584,0.376,1.278,0.585,1.949,0.585c0.938,0,1.776-0.413,2.3-1.132c0.633-0.871,0.728-2.01,0.281-3.387
						l-1.559-5.085l2.833-2.901c1.59-1.587,1.361-2.96,1.081-3.636c-0.272-0.658-1.058-1.761-3.258-1.761h-4.557l-1.536-4.625
						C17.033,3.226,16.093,2.537,15.021,2.537L15.021,2.537z"/>
				</g>
			</g>
		</g>
		<g>
			<g>
				<g>
					<g>
						<path fill="#DB9446" d="M21.842,25.363c-0.381,0-0.797-0.127-1.142-0.35l-5.679-3.633l-5.596,3.601
							c-0.365,0.233-0.778,0.361-1.164,0.361c-0.467,0-0.861-0.187-1.111-0.526c-0.34-0.462-0.376-1.137-0.107-2.004l1.845-5.964
							l-3.471-3.537c-0.965-0.965-0.975-1.637-0.813-2.03c0.34-0.82,1.526-0.82,1.916-0.82h5.639l1.877-5.653
							c0.171-0.479,0.547-0.771,0.984-0.771s0.813,0.292,0.98,0.76l1.88,5.664h5.639c1.013,0,1.643,0.281,1.872,0.835
							c0.236,0.569-0.039,1.286-0.772,2.019l-3.452,3.533l1.83,5.966c0.288,0.887,0.265,1.575-0.07,2.035
							C22.688,25.181,22.302,25.363,21.842,25.363L21.842,25.363z"/>
					</g>
				</g>
			</g>
		</g>
		<g>
			<g>
				
					<linearGradient id="SVGID_1_" gradientUnits="userSpaceOnUse" x1="-588.0918" y1="1958.043" x2="-588.0918" y2="1977.8594" gradientTransform="matrix(1 0 0 -1 603.1001 1982.4004)">
					<stop  offset="0" style="stop-color:#FFB900"/>
					<stop  offset="1" style="stop-color:#FFDC00"/>
				</linearGradient>
				<path fill="url(#SVGID_1_)" d="M14.512,4.965l-1.991,5.995h-6c-2.074,0-1,1-1,1l4.366,4.521l-2.02,6.625
					c-0.245,0.775-0.075,1.215,0.381,1.215c0.218,0,0.5-0.1,0.835-0.309L15,20.279l6.004,3.768c0.332,0.211,0.613,0.311,0.83,0.311
					c0.451,0,0.615-0.436,0.359-1.213l-2.039-6.662l4.365-4.521c0,0,1.01-1.001-1-1h-6l-1.99-5.995
					C15.326,4.399,14.717,4.399,14.512,4.965z"/>
				<g>
					<linearGradient id="SVGID_2_" gradientUnits="userSpaceOnUse" x1="15.0083" y1="24.3569" x2="15.0083" y2="4.5459">
						<stop  offset="0" style="stop-color:#FFFF00;stop-opacity:0"/>
						<stop  offset="1" style="stop-color:#FFFF00"/>
					</linearGradient>
					<path fill="url(#SVGID_2_)" d="M15.021,5.398l1.8,6.064h7.2l-4.339,4.922l2.265,7.66l-6.948-4.25l-6.872,4.213l2.231-7.623
						l-4.337-4.922h7.199L15.021,5.398z M15.021,4.546c-0.208,0-0.407,0.136-0.51,0.419l-1.991,5.995h-6c-2.074,0-1,1-1,1
						l4.366,4.521l-2.02,6.625c-0.245,0.775-0.075,1.215,0.381,1.215c0.218,0,0.5-0.1,0.835-0.309L15,20.279l6.004,3.768
						c0.332,0.211,0.613,0.311,0.83,0.311c0.451,0,0.615-0.436,0.359-1.213l-2.039-6.662l4.365-4.521c0,0,1.009-1-0.997-1
						c-0.001,0-0.002,0-0.003,0h-6l-1.99-5.995C15.428,4.682,15.229,4.546,15.021,4.546L15.021,4.546z"/>
				</g>
			</g>
		</g>
	</g>
	<rect fill="none" width="30" height="30"/>
</g>
</svg>
