<?xml version="1.0" encoding="utf-8"?>
<!-- Generator: Adobe Illustrator 16.0.3, SVG Export Plug-In . SVG Version: 6.00 Build 0)  -->
<!DOCTYPE svg PUBLIC "-//W3C//DTD SVG 1.1//EN" "http://www.w3.org/Graphics/SVG/1.1/DTD/svg11.dtd">
<svg version="1.1" id="Layer_1" xmlns="http://www.w3.org/2000/svg" xmlns:xlink="http://www.w3.org/1999/xlink" x="0px" y="0px"
	 width="260px" height="200px" viewBox="0 0 260 200" enable-background="new 0 0 260 200" xml:space="preserve">
<g id="New_Symbol">
	<g>
		
			<linearGradient id="SVGID_1_" gradientUnits="userSpaceOnUse" x1="407.6006" y1="-399.8999" x2="407.6006" y2="-199.9004" gradientTransform="matrix(1 0 0 -1 -277.5996 -199.9004)">
			<stop  offset="0" style="stop-color:#DAE1E3"/>
			<stop  offset="1" style="stop-color:#F2FAFB"/>
		</linearGradient>
		<path fill="url(#SVGID_1_)" d="M260,190c0,5.5-4.5,10-10,10H10c-5.5,0-10-4.5-10-10V10C0,4.5,4.5,0,10,0h240c5.5,0,10,4.5,10,10
			V190z"/>
		
			<linearGradient id="SVGID_2_" gradientUnits="userSpaceOnUse" x1="407.6006" y1="-399.8999" x2="407.6006" y2="-199.9004" gradientTransform="matrix(1 0 0 -1 -277.5996 -199.9004)">
			<stop  offset="0" style="stop-color:#CDD5D6"/>
			<stop  offset="1" style="stop-color:#FFFFFF"/>
		</linearGradient>
		<path fill="url(#SVGID_2_)" d="M250,1c4.963,0,9,4.038,9,9v180c0,4.963-4.037,9-9,9H10c-4.963,0-9-4.037-9-9V10
			c0-4.962,4.037-9,9-9H250 M250,0H10C4.5,0,0,4.5,0,10v180c0,5.5,4.5,10,10,10h240c5.5,0,10-4.5,10-10V10C260,4.5,255.5,0,250,0
			L250,0z"/>
	</g>
	<rect fill="none" width="260" height="200"/>
</g>
</svg>
