<?xml version="1.0" encoding="utf-8"?>
<!-- Generator: Adobe Illustrator 16.0.3, SVG Export Plug-In . SVG Version: 6.00 Build 0)  -->
<!DOCTYPE svg PUBLIC "-//W3C//DTD SVG 1.1//EN" "http://www.w3.org/Graphics/SVG/1.1/DTD/svg11.dtd">
<svg version="1.1" id="Layer_1" xmlns="http://www.w3.org/2000/svg" xmlns:xlink="http://www.w3.org/1999/xlink" x="0px" y="0px"
	 width="260px" height="200px" viewBox="0 0 260 200" enable-background="new 0 0 260 200" xml:space="preserve">
<path opacity="0.7" fill="#737B80" d="M260,192c0,4.4-3.6,8-8,8H8c-4.4,0-8-3.6-8-8V8c0-4.4,3.6-8,8-8h244c4.4,0,8,3.6,8,8V192z"/>
<circle opacity="0.7" fill="#FFFFFF" enable-background="new    " cx="130" cy="100" r="36"/>
<g opacity="0.8">
	<g>
		<g>
			<path fill="#737B80" d="M140,110c0,1.1-0.9,2-2,2h-16c-1.1,0-2-0.9-2-2V98c0-1.1,0.9-2,2-2h16c1.1,0,2,0.9,2,2V110z"/>
		</g>
		<g>
			<path fill="none" stroke="#737B80" stroke-width="3" stroke-miterlimit="10" d="M124.5,97c0,0,0-2.475,0-5.5s2.475-5.5,5.5-5.5
				c3.025,0,5.5,2.475,5.5,5.5s0,5.5,0,5.5"/>
		</g>
		<g>
			<circle fill="#FFFFFF" cx="130" cy="102" r="2"/>
			
				<line fill="none" stroke="#FFFFFF" stroke-width="2" stroke-linecap="round" stroke-miterlimit="10" x1="130" y1="102.5" x2="130" y2="106.5"/>
		</g>
	</g>
</g>
</svg>
