<?xml version="1.0" encoding="utf-8"?>
<!-- Generator: Adobe Illustrator 16.0.3, SVG Export Plug-In . SVG Version: 6.00 Build 0)  -->
<!DOCTYPE svg PUBLIC "-//W3C//DTD SVG 1.1//EN" "http://www.w3.org/Graphics/SVG/1.1/DTD/svg11.dtd">
<svg version="1.1" id="Layer_1" xmlns="http://www.w3.org/2000/svg" xmlns:xlink="http://www.w3.org/1999/xlink" x="0px" y="0px"
	 width="72px" height="72px" viewBox="-0.5 11.5 72 72" enable-background="new -0.5 11.5 72 72" xml:space="preserve">
<g opacity="0.3">
	<polygon points="67.5,40.5 35.5,56.5 3.5,40.5 35.5,24.5 	"/>
	<path d="M53.5,50.5c0,0,0,4,0,8c0,5.344-9,10-18,10s-18-4.656-18-10c0-4,0-8,0-8l18,10L53.5,50.5z"/>
	<line fill="none" stroke="#000000" stroke-width="2" stroke-miterlimit="10" x1="62.5" y1="42.5" x2="62.5" y2="52.5"/>
	<circle cx="62.5" cy="53.438" r="3"/>
	<path d="M65.5,66.438c0,5.164-6,5.164-6,0c0-2.027,2-10,2-10h2C63.5,56.438,65.5,64.41,65.5,66.438z"/>
</g>
</svg>
